<svg xmlns="http://www.w3.org/2000/svg" width="500" height="500" viewBox="0 0 500 500"><title>cassandra_chang_logo_white</title><g id="61fdcdf3-8caa-400c-91f9-0a6e6d51f48b" data-name="Layer 1"><path d="M494.36,242,379.11,42.38a16,16,0,0,0-13.86-8H134.75a16,16,0,0,0-13.86,8L5.64,242a16,16,0,0,0,0,16L120.89,457.62a16,16,0,0,0,13.86,8h230.5a16,16,0,0,0,13.86-8L494.36,258A16,16,0,0,0,494.36,242ZM220.5,104.25c20.25,0,36.75,5.25,57.25,18l4.75-15.5h12.25l-5,63.25h-10c-7-30.5-28.5-49.5-57-49.5-39.25,0-61.75,32-61.75,84.25,0,41.39,14.06,68.23,40.86,77.18,7.63-50.4,47-83.68,101.64-83.68,20.25,0,36.75,5.25,57.25,18l4.75-15.5h12.25l-5,63.25h-10c-7-30.5-28.5-49.5-57-49.5-34.95,0-56.61,25.39-60.93,67.85,21.57-6.42,36.56-23.52,43.68-50.85h11v67.75H287.75l-3.5-19.75A96.92,96.92,0,0,1,244,298.92c.05,51.39,21.79,80.33,62.75,80.33,33,0,55.5-18.25,64.75-53.75h11v67.75H370.75l-3.5-19.75c-18.5,15-40.75,22.25-66.75,22.25-60.59,0-99.79-37.05-100-95-51-6.37-83-41.85-83-94.47C117.5,145.75,159.5,104.25,220.5,104.25ZM365.25,449.62H134.75L19.5,250,134.75,449.62h230.5L480.5,250Z" fill="#fff"/><g opacity="0.3"><path d="M365.5,200.75h12.25l-5,63.25h-10c-7-30.5-28.5-49.5-57-49.5-39.25,0-61.75,32-61.75,84.25,0,51.5,21.75,80.5,62.75,80.5,33,0,55.5-18.25,64.75-53.75h11v67.75H370.75l-3.5-19.75c-18.5,15-40.75,22.25-66.75,22.25-60.75,0-100-37.25-100-95.5,0-60.5,42-102,103-102,20.25,0,36.75,5.25,57.25,18Z" fill="#fff"/></g></g></svg>